<svg  class="arrow"><path class="arrow-color" d="M124.172 305.975L342.365 87.781c20.079-20.079 20.079-52.644 0-72.722-20.079-20.079-52.644-20.079-72.723 0l-254.58 254.58c-20.079 20.079-20.079 52.644 0 72.723l254.58 254.58c20.079 20.078 52.644 20.078 72.723 0 20.079-20.079 20.079-52.644 0-72.723L124.172 305.975zm307.223-.281l165.371-165.982c20.308-20.359 20.308-53.408 0-73.768-20.309-20.359-53.204-20.359-73.513 0L321.139 268.823c-20.309 20.359-17.047 35.266 3.032 55.345L523.253 545.47c20.309 20.359 53.204 20.359 73.513 0 20.308-20.359 20.308-53.408 0-73.768L431.395 305.694z"/></svg>