<svg aria-hidden="true" style="position: absolute; width: 0; height: 0; overflow: hidden;" version="1.1" xmlns="http://www.w3.org/2000/svg" xmlns:xlink="http://www.w3.org/1999/xlink">
<defs>

<symbol id="icon-half-arrow-right-red" viewBox="0 0 26 32">
<path fill="none" stroke="#d41443" style="stroke: var(--color1, #d41443)" stroke-linejoin="round" stroke-linecap="round" stroke-miterlimit="4" stroke-width="6.4" d="M3.542 3.2l16.825 12.8-16.825 12.8"></path>
</symbol>

<symbol id="icon-half-arrow-right-white" viewBox="0 0 26 32">
<path fill="none" stroke="#fff" style="stroke: var(--color1, #fff)" stroke-linejoin="round" stroke-linecap="round" stroke-miterlimit="4" stroke-width="6.4" d="M3.542 3.2l16.825 12.8-16.825 12.8"></path>
</symbol>

<symbol id="arrow-right" viewBox="-9 -15 34 44">
 <path d="M8.22 2.97a.75.75 0 011.06 0l4.25 4.25a.75.75 0 010 1.06l-4.25 4.25a.75.75 0 01-1.06-1.06l2.97-2.97H3.75a.75.75 0 010-1.5h7.44L8.22 4.03a.75.75 0 010-1.06z"></path>
</symbol>

<symbol id="icon-house" viewBox="0 0 35 32">
<path fill="#d31342" style="fill: var(--color2, #d31342)" d="M32.64 15.401c0.599-0.65 0.541-1.646-0.129-2.225l-14.772-12.75c-0.671-0.578-1.745-0.566-2.402 0.027l-14.822 13.403c-0.656 0.594-0.689 1.589-0.071 2.222l0.372 0.382c0.617 0.633 1.613 0.708 2.224 0.168l1.108-0.979v14.326c0 0.879 0.722 1.591 1.612 1.591h5.778c0.89 0 1.612-0.712 1.612-1.591v-10.023h7.37v10.023c-0.013 0.878 0.624 1.59 1.515 1.59h6.123c0.89 0 1.613-0.711 1.613-1.59v-14.124c0 0 0.306 0.264 0.683 0.592s1.168 0.065 1.767-0.586l0.42-0.455z"></path>
</symbol>
<symbol id="arrow-right" viewBox="-9 -15 34 44">
<path d="M8.22 2.97a.75.75 0 011.06 0l4.25 4.25a.75.75 0 010 1.06l-4.25 4.25a.75.75 0 01-1.06-1.06l2.97-2.97H3.75a.75.75 0 010-1.5h7.44L8.22 4.03a.75.75 0 010-1.06z"></path>
</symbol>

<symbol id="icon-menu-burger" viewBox="0 0 46 32">
<path fill="none" stroke="#d41443" style="stroke: var(--color1, #d41443)" stroke-linejoin="miter" stroke-linecap="butt" stroke-miterlimit="4" stroke-width="2.2857" d="M0 2.286h45.714"></path>
<path fill="none" stroke="#d41443" style="stroke: var(--color1, #d41443)" stroke-linejoin="miter" stroke-linecap="butt" stroke-miterlimit="4" stroke-width="2.2857" d="M0 16h45.714"></path>
<path fill="none" stroke="#d41443" style="stroke: var(--color1, #d41443)" stroke-linejoin="miter" stroke-linecap="butt" stroke-miterlimit="4" stroke-width="2.2857" d="M0 29.714h45.714"></path>
</symbol>

<symbol id="icon-menu-close" viewBox="0 0 32 32">
<path fill="none" stroke="#fff" style="stroke: var(--color3, #fff)" stroke-linejoin="miter" stroke-linecap="butt" stroke-miterlimit="4" stroke-width="2" d="M2.519 2l26.963 28"></path>
<path fill="none" stroke="#fff" style="stroke: var(--color3, #fff)" stroke-linejoin="miter" stroke-linecap="butt" stroke-miterlimit="4" stroke-width="2" d="M2 29.481l28-26.963"></path>
</symbol>

<symbol id="icon-quotes" viewBox="0 0 43 32">
<path fill="#e1e1e1" style="fill: var(--color4, #e1e1e1)" d="M32.014 0c1.929 0 3.75 0.52 5.464 1.561s3.107 2.537 4.179 4.488c1.029 1.951 1.543 4.249 1.543 6.894s-0.643 5.225-1.929 7.74c-0.429 0.911-1.2 2.081-2.314 3.512-1.157 1.431-2.229 2.667-3.214 3.707l-4.050 4.098-2.893-4.813c2.014-1.257 3.793-2.818 5.336-4.683 1.543-1.821 2.314-3.491 2.314-5.008 0-0.78-0.171-1.409-0.514-1.886-1.5 1.084-3.171 1.626-5.014 1.626-1.329 0-2.593-0.412-3.793-1.236-1.243-0.78-2.229-1.821-2.957-3.122-0.771-1.258-1.157-2.558-1.157-3.902 0-1.518 0.45-2.97 1.35-4.358 0.857-1.388 1.993-2.515 3.407-3.382 1.371-0.824 2.786-1.236 4.243-1.236zM8.936 0c1.929 0 3.75 0.52 5.464 1.561s3.107 2.537 4.179 4.488c1.029 1.951 1.543 4.249 1.543 6.894 0 1.864-0.236 3.534-0.707 5.008-0.471 1.518-1.286 3.1-2.443 4.748-1.114 1.561-2.164 2.862-3.15 3.902-0.986 1.084-2.7 2.884-5.143 5.398l-2.893-4.813c2.014-1.257 3.793-2.818 5.336-4.683 1.543-1.821 2.314-3.491 2.314-5.008 0-0.78-0.171-1.409-0.514-1.886-1.5 1.084-3.171 1.626-5.014 1.626-1.329 0-2.593-0.412-3.793-1.236-1.243-0.78-2.229-1.821-2.957-3.122-0.771-1.258-1.157-2.558-1.157-3.902 0-1.518 0.429-2.97 1.286-4.358s1.993-2.515 3.407-3.382c1.371-0.824 2.786-1.236 4.243-1.236z"></path>
</symbol>

<symbol id="icon-facebook" viewBox="0 0 33 32">
<path d="M16.471 32c8.837 0 16-7.163 16-16s-7.163-16-16-16c-8.837 0-16 7.163-16 16s7.163 16 16 16z"></path>
<path fill="#fff" style="fill: var(--color3, #fff)" d="M20.916 15.981h-2.61v9.618h-3.955v-9.618h-1.881v-3.38h1.881v-2.188c0-1.564 0.739-4.014 3.99-4.014l2.929 0.012v3.281h-2.125c-0.349 0-0.839 0.175-0.839 0.921v1.989h2.955l-0.346 3.377z"></path>
</symbol>

<symbol id="icon-github" viewBox="0 0 32 32">
<path d="M32 16c0 8.837-7.163 16-16 16s-16-7.163-16-16c0-8.837 7.163-16 16-16s16 7.163 16 16z"></path>
<path fill="#fff" style="fill: var(--color3, #fff)" d="M16 6.588c-5.169 0-9.412 4.242-9.412 9.412 0 4.411 3.095 8.419 7.206 9.412v-3.114c-0.407 0.089-0.782 0.092-1.197-0.030-0.556-0.164-1.008-0.535-1.344-1.1-0.214-0.361-0.593-0.752-0.988-0.723l-0.097-1.099c0.855-0.073 1.595 0.521 2.034 1.258 0.195 0.328 0.419 0.52 0.708 0.605 0.278 0.082 0.577 0.043 0.926-0.081 0.088-0.698 0.407-0.959 0.649-1.326v-0.001c-2.451-0.366-3.428-1.666-3.816-2.693-0.514-1.363-0.238-3.066 0.671-4.142 0.018-0.021 0.050-0.076 0.037-0.114-0.417-1.258 0.091-2.3 0.11-2.41 0.481 0.142 0.559-0.143 2.088 0.786l0.264 0.159c0.111 0.066 0.076 0.028 0.186 0.020 0.639-0.174 1.312-0.269 1.975-0.278 0.668 0.009 1.337 0.104 2.002 0.285l0.086 0.009c-0.008-0.001 0.023-0.005 0.075-0.036 1.911-1.157 1.842-0.779 2.354-0.946 0.018 0.111 0.519 1.169 0.107 2.411-0.056 0.171 1.657 1.739 0.708 4.256-0.388 1.027-1.365 2.328-3.816 2.693v0.001c0.314 0.479 0.692 0.734 0.69 1.722v3.887c4.111-0.993 7.206-5 7.206-9.412 0-5.169-4.242-9.412-9.412-9.412v0z"></path>
</symbol>

<symbol id="icon-telegram" viewBox="0 0 33 32">
<path d="M32.235 16c0 8.837-7.163 16-16 16s-16-7.163-16-16c0-8.837 7.163-16 16-16s16 7.163 16 16z"></path>
<path fill="#fff" style="fill: var(--color3, #fff)" d="M13.102 18.375l-0.318 4.169c0.454 0 0.651-0.182 0.887-0.401l2.13-1.9 4.414 3.017c0.81 0.421 1.38 0.199 1.598-0.695l2.898-12.673c0.257-1.117-0.433-1.554-1.222-1.28l-17.032 6.086c-1.162 0.421-1.145 1.026-0.198 1.3l4.355 1.264 10.115-5.907c0.476-0.294 0.909-0.131 0.553 0.163l-8.182 6.857z"></path>
</symbol>
<symbol id="icon-Group" viewBox="0 0 139 32">
<path   d="M85.333 16c0 8.837-7.163 16-16 16s-16-7.163-16-16c0-8.837 7.163-16 16-16s16 7.163 16 16z"></path>
<path  d="M32 16c0 8.837-7.163 16-16 16s-16-7.163-16-16c0-8.837 7.163-16 16-16s16 7.163 16 16z"></path>
<path   d="M138.667 16c0 8.837-7.163 16-16 16s-16-7.163-16-16c0-8.837 7.163-16 16-16s16 7.163 16 16z"></path>
</symbol>

<symbol id="icon-logo-svg" viewBox="0 0 33 32">
<path fill="#d41439" style="fill: var(--color1, #d41439)" d="M12.408 0.588c-7.51 2.286-12.016 8.229-12.016 15.739 0 6.139 3.135 11.494 8.294 14.171 2.678 1.371 3.069 0.392 0.588-1.502-1.763-1.437-2.090-2.090-2.090-4.506 0-1.698-0.392-3.069-0.98-3.592-1.176-0.98-1.306-3.527-0.131-4.441 0.457-0.392 0.914-1.698 0.98-2.873 0.327-4.31 4.963-8.359 9.6-8.359s9.273 4.049 9.6 8.359c0.065 1.175 0.522 2.482 0.98 2.873 1.175 0.914 1.045 3.461-0.131 4.441-0.588 0.522-0.98 1.894-0.98 3.592 0 2.416-0.327 3.069-2.090 4.506-2.743 2.155-1.959 2.939 1.11 1.045 4.31-2.678 7.51-8.49 7.51-13.649 0-10.318-10.71-18.678-20.245-15.804z"></path>
<path fill="#d41439" style="fill: var(--color1, #d41439)" d="M13.257 8.163c-1.175 0.522-2.155 1.175-2.155 1.567 0 0.718 3.527 2.024 5.551 2.024s5.551-1.306 5.551-2.024c0-0.784-4.049-2.547-5.682-2.547-0.653 0.065-2.155 0.457-3.265 0.98z"></path>
<path fill="#d41439" style="fill: var(--color1, #d41439)" d="M9.535 12.212c-0.196 0.261-0.392 1.11-0.392 1.959 0 1.502 0.065 1.502 7.51 1.502s7.51 0 7.51-1.502c0-2.22-0.588-2.482-2.678-1.437-2.351 1.241-7.314 1.241-9.665 0-1.045-0.522-2.024-0.718-2.286-0.522z"></path>
<path fill="#d41439" style="fill: var(--color1, #d41439)" d="M7.641 18.024c-1.045 1.11 0.718 1.567 5.812 1.567h5.486v2.286c0 1.241 0.327 2.286 0.653 2.286 0.392 0 0.653-0.98 0.653-2.22 0-2.155 0.131-2.286 2.612-2.482 1.437-0.131 2.612-0.522 2.612-0.849 0-0.718-17.11-1.306-17.829-0.588z"></path>
<path fill="#d41439" style="fill: var(--color1, #d41439)" d="M9.143 23.771c0 3.592 1.241 4.31 7.51 4.31s7.51-0.718 7.51-4.31c0-1.567-0.327-2.22-0.98-2.22-0.588 0-0.98 0.588-0.98 1.567 0 3.657-4.963 3.984-5.682 0.392-0.327-1.894-0.522-1.959-3.853-1.959h-3.527v2.22z"></path>
<path fill="#d41439" style="fill: var(--color1, #d41439)" d="M13.061 31.020c0 0.784 0.849 0.98 3.592 0.98s3.592-0.196 3.592-0.98c0-0.784-0.849-0.98-3.592-0.98s-3.592 0.196-3.592 0.98z"></path>
</symbol>

</defs>
</svg>
